<svg width="121" height="148" viewBox="144 144 121 148" fill="none" xmlns="http://www.w3.org/2000/svg" xmlns:xlink="http://www.w3.org/1999/xlink">
<defs>
<mask id="mask21_83_5" style="mask-type:luminance" maskUnits="userSpaceOnUse" x="144" y="144" width="121" height="148">
<path d="M144.823 144.323H264.078V291.531H144.823V144.323Z" fill="white"/>
</mask>
<mask id="mask22_83_5" style="mask-type:luminance" maskUnits="userSpaceOnUse" x="144" y="144" width="121" height="148">
<path d="M204.448 144.323L216.026 164.552L234.265 154.156L236.073 178.802L256.088 181.031L247.646 203.489L264.078 217.739L247.646 231.989L256.088 254.448L236.073 256.677L234.265 281.323L216.026 270.927L204.448 291.156L192.875 270.927L174.635 281.323L172.828 256.677L152.812 254.448L161.25 231.989L144.823 217.739L161.25 203.489L152.812 181.031L172.828 178.802L174.635 154.156L192.875 164.552L204.448 144.323Z" fill="white"/>
</mask>
<mask id="mask23_83_5" style="mask-type:luminance" maskUnits="userSpaceOnUse" x="144" y="144" width="122" height="148">
<path d="M265.333 144H144V292H265.333V144Z" fill="white"/>
</mask>
<mask id="mask24_83_5" style="mask-type:luminance" maskUnits="userSpaceOnUse" x="144" y="144" width="121" height="148">
<path d="M144.823 144.323H264.078V291.255H144.823V144.323Z" fill="white"/>
</mask>
<mask id="mask25_83_5" style="mask-type:luminance" maskUnits="userSpaceOnUse" x="144" y="144" width="121" height="148">
<path d="M204.448 144.323L216.026 164.552L234.265 154.156L236.073 178.802L256.088 181.031L247.646 203.49L264.078 217.74L247.646 231.99L256.088 254.448L236.073 256.677L234.265 281.323L216.026 270.927L204.448 291.156L192.875 270.927L174.635 281.323L172.828 256.677L152.812 254.448L161.25 231.99L144.823 217.74L161.25 203.49L152.812 181.031L172.828 178.802L174.635 154.156L192.875 164.552L204.448 144.323Z" fill="white"/>
</mask>
</defs>
<g mask="url(#mask21_83_5)">
<mask id="mask22_83_5" style="mask-type:luminance" maskUnits="userSpaceOnUse" x="144" y="144" width="121" height="148">
<path d="M204.448 144.323L216.026 164.552L234.265 154.156L236.073 178.802L256.088 181.031L247.646 203.489L264.078 217.739L247.646 231.989L256.088 254.448L236.073 256.677L234.265 281.323L216.026 270.927L204.448 291.156L192.875 270.927L174.635 281.323L172.828 256.677L152.812 254.448L161.25 231.989L144.823 217.739L161.25 203.489L152.812 181.031L172.828 178.802L174.635 154.156L192.875 164.552L204.448 144.323Z" fill="white"/>
</mask>
<g mask="url(#mask22_83_5)">
<mask id="mask23_83_5" style="mask-type:luminance" maskUnits="userSpaceOnUse" x="144" y="144" width="122" height="148">
<path d="M265.333 144H144V292H265.333V144Z" fill="white"/>
</mask>
<g mask="url(#mask23_83_5)">
<mask id="mask24_83_5" style="mask-type:luminance" maskUnits="userSpaceOnUse" x="144" y="144" width="121" height="148">
<path d="M144.823 144.323H264.078V291.255H144.823V144.323Z" fill="white"/>
</mask>
<g mask="url(#mask24_83_5)">
<mask id="mask25_83_5" style="mask-type:luminance" maskUnits="userSpaceOnUse" x="144" y="144" width="121" height="148">
<path d="M204.448 144.323L216.026 164.552L234.265 154.156L236.073 178.802L256.088 181.031L247.646 203.49L264.078 217.74L247.646 231.99L256.088 254.448L236.073 256.677L234.265 281.323L216.026 270.927L204.448 291.156L192.875 270.927L174.635 281.323L172.828 256.677L152.812 254.448L161.25 231.99L144.823 217.74L161.25 203.49L152.812 181.031L172.828 178.802L174.635 154.156L192.875 164.552L204.448 144.323Z" fill="white"/>
</mask>
<g mask="url(#mask25_83_5)">
<path d="M144.823 144.323H264.078V291.063H144.823V144.323Z" fill="#FF4633"/>
</g>
</g>
</g>
</g>
</g>
</svg>
